<svg width="21" height="21" viewBox="0 0 21 21" fill="none" xmlns="http://www.w3.org/2000/svg">
<path d="M7.10714 10.5L8.41273 9.62961C8.85708 9.33337 9.08639 8.80407 8.9986 8.27729L8.80935 7.14181C8.64745 6.17039 7.53728 5.68943 6.71786 6.23571L6.42857 6.42857V7.78571C6.42857 11.5334 9.46664 14.5714 13.2143 14.5714H14.5714L14.7643 14.2821C15.3106 13.4627 14.8296 12.3526 13.8582 12.1907L12.7227 12.0014C12.1959 11.9136 11.6666 12.1429 11.3704 12.5873L10.5 13.8929M1 10.5C1 12.6389 1.70686 14.6127 2.89972 16.2006L1 20L4.79944 18.1003C6.38729 19.2931 8.3611 20 10.5 20C15.7467 20 20 15.7467 20 10.5C20 5.2533 15.7467 1 10.5 1C5.2533 1 1 5.2533 1 10.5Z" stroke="white" stroke-width="2" stroke-linecap="round" stroke-linejoin="round"/>
</svg>
