<svg width="22" height="22" viewBox="0 0 22 22" fill="none" xmlns="http://www.w3.org/2000/svg">
<path d="M16 5.28571H17.4286M6.71429 1H15.2857C18.4416 1 21 3.55837 21 6.71429V15.2857C21 18.4416 18.4416 21 15.2857 21H6.71429C3.55837 21 1 18.4416 1 15.2857V6.71429C1 3.55837 3.55837 1 6.71429 1ZM11 15.2857C8.63307 15.2857 6.71429 13.3669 6.71429 11C6.71429 8.63307 8.63307 6.71429 11 6.71429C13.3669 6.71429 15.2857 8.63307 15.2857 11C15.2857 13.3669 13.3669 15.2857 11 15.2857Z" stroke="white" stroke-width="2" stroke-linecap="round" stroke-linejoin="round"/>
</svg>
