<svg width="20" height="20" viewBox="0 0 20 20" fill="none" xmlns="http://www.w3.org/2000/svg">
<path d="M6.62886 1.51562H3.93889C2.60002 1.51562 1.51465 2.601 1.51465 3.93987V6.36411C1.51465 13.0585 6.9415 18.4853 13.6359 18.4853H16.0601C17.399 18.4853 18.4843 17.4 18.4843 16.0611V14.386C18.4843 13.9269 18.2249 13.5071 17.8143 13.3018L14.8859 11.8376C14.2261 11.5077 13.4272 11.8387 13.1939 12.5385L12.833 13.6212C12.5992 14.3226 11.8797 14.7402 11.1548 14.5952C8.25318 14.0148 5.98512 11.7468 5.40481 8.84522C5.25982 8.12026 5.67734 7.40079 6.37872 7.16699L7.72251 6.71906C8.32339 6.51877 8.66875 5.88963 8.51514 5.27516L7.80479 2.43376C7.66989 1.89417 7.18506 1.51562 6.62886 1.51562Z" stroke="#6DD0EF" stroke-width="2"/>
</svg>
