<svg width="22" height="22" viewBox="0 0 22 22" fill="none" xmlns="http://www.w3.org/2000/svg">
<path d="M7.29165 1.66675H4.33268C2.85992 1.66675 1.66602 2.86066 1.66602 4.33341V7.00008C1.66602 14.3639 7.63555 20.3334 14.9993 20.3334H17.666C19.1388 20.3334 20.3327 19.1395 20.3327 17.6667V15.8241C20.3327 15.3191 20.0473 14.8574 19.5956 14.6316L16.3744 13.0209C15.6487 12.6581 14.7698 13.0221 14.5132 13.7919L14.1162 14.9829C13.859 15.7544 13.0676 16.2137 12.2701 16.0542C9.0784 15.4159 6.58354 12.921 5.94519 9.7293C5.7857 8.93185 6.24498 8.14043 7.01649 7.88325L8.49467 7.39053C9.15563 7.17021 9.53553 6.47815 9.36655 5.80224L8.58517 2.6767C8.43678 2.08314 7.90347 1.66675 7.29165 1.66675Z" stroke="white" stroke-width="2"/>
</svg>
