<svg width="150" height="67" viewBox="0 0 150 67" fill="none" xmlns="http://www.w3.org/2000/svg">
<g opacity="0.5">
<path d="M106.235 5.92768V8.36181H127.086C128.466 8.36181 130.558 8.36181 131.942 9.76517C133.327 11.1589 133.327 13.2518 133.327 14.6559V35.5932C133.327 36.9814 133.327 39.0864 131.942 40.4747C130.558 41.8718 128.466 41.8718 127.086 41.8718H117.013C115.276 41.8718 113.014 41.8718 112.148 39.9484C111.279 38.0339 112.495 36.2875 113.538 34.8904L127.086 16.7558H106.235L97.9138 27.9193C96.5221 29.7888 95.3115 31.4074 95.3115 33.497C95.3115 35.5931 96.4257 37.1045 97.9138 39.0864L100.004 41.8718C102.073 44.6623 104.164 47.4583 106.939 48.8536C109.724 50.2451 113.014 50.2451 117.533 50.2451H126.566C131.768 50.2451 139.591 50.2451 144.793 45.0168C150 39.7774 150 32.1032 150 29.3042V20.9309C150 18.1385 150 10.4613 144.793 5.23153C139.591 0.000255585 131.768 0.000259399 126.566 0.000259399H112.148C110.764 0.000259399 109.025 0.000259399 107.642 1.39035C106.235 2.78781 106.235 4.52727 106.235 5.92768Z" fill="#6DD0EF"/>
<path d="M81.2448 16.7552H102.072L77.0775 50.2549H56.2451L81.2448 16.7552Z" fill="#6DD0EF"/>
<path d="M0 22.6722C0 21.2821 -5.59415e-07 19.5372 1.38802 18.1382C2.7797 16.7555 4.50831 16.7555 5.90366 16.7555H40.7965C45.3071 16.7555 48.6114 16.7555 51.3841 18.1382C54.1638 19.5372 56.2458 22.331 58.3396 25.1178L60.4132 27.919C61.8892 29.8976 63.0206 31.4071 63.0206 33.4967C63.0206 35.5929 61.8148 37.2133 60.4132 39.0861L52.0814 50.2551H31.2443L44.7868 32.1029C45.8339 30.7132 47.0478 28.9663 46.1818 27.0375C45.3071 25.1178 43.0542 25.1178 41.308 25.1178H25.0015V67H8.3347V25.1178H0V22.6722Z" fill="#6DD0EF"/>
</g>
</svg>
