<svg width="183" height="32" viewBox="0 0 183 32" fill="none" xmlns="http://www.w3.org/2000/svg">
<g opacity="0.5">
<path d="M65.195 31.9996C58.5659 31.9996 52.4122 30.0251 48.3046 26.3634C45.2014 23.5969 43.7102 19.8391 43.7102 15.9715C43.7102 12.151 45.2657 8.36734 48.3043 5.61546C52.119 2.16246 58.854 0 65.195 0C72.2122 0 77.8287 1.75551 82.1222 5.62495C85.1769 8.37829 86.6538 12.1452 86.6538 15.9719C86.6538 19.6811 85.0865 23.6312 82.1222 26.3634C78.1241 30.0489 71.8411 31.9996 65.195 31.9996V27.7791C68.7136 27.7791 71.9774 26.5725 74.2568 24.3199C76.5205 22.0826 77.5751 19.3326 77.5751 15.9715C77.5751 12.7518 76.4374 9.74146 74.2568 7.60638C72.0079 5.40633 68.6662 4.16834 65.195 4.16834C61.7133 4.16834 58.3693 5.39355 56.1185 7.60638C53.9497 9.74073 52.8091 12.7598 52.8091 15.9715C52.8091 19.1734 53.963 22.1907 56.1185 24.3203C58.3711 26.5459 61.7033 27.7795 65.195 27.7795V32V31.9996ZM16.7427 0.0153288C13.1966 0.0153288 9.16801 0.674103 5.74503 2.19239C2.58589 3.59242 7.4871e-07 5.8567 7.4871e-07 9.61044C-0.00146913 12.9912 2.16183 14.9711 2.10303 14.9164C3.02318 15.7577 4.50445 17.1902 8.37721 18.0314C10.108 18.4074 13.8084 18.9847 17.4934 19.3672C21.1512 19.7505 24.7509 20.1147 26.2171 20.4833C27.382 20.7778 29.3388 21.1789 29.3388 23.3593C29.3388 25.5309 27.2773 26.1937 26.919 26.3375C26.5611 26.478 24.088 27.605 19.6424 27.605C16.3601 27.605 12.4142 26.6247 10.976 26.1137C9.31793 25.5276 7.5787 24.7524 5.95632 22.7841C5.55284 22.2961 4.91638 20.9541 4.91638 19.6253H0.892953V30.8226H5.36506V29.3098C5.36506 29.1375 5.58187 28.4291 6.33261 28.766C7.26672 29.1875 10.0088 30.2719 12.8758 30.8664C15.2265 31.3547 16.7423 31.7047 19.6648 31.7047C24.4331 31.7047 26.9947 30.9332 28.7655 30.431C30.4339 29.9565 32.4954 29.1047 34.1699 27.7784C35.0768 27.0612 37.0656 25.2228 37.0656 21.8859C37.0656 18.6829 35.3348 16.6949 34.7259 16.0901C33.8965 15.266 32.8834 14.6273 31.8277 14.135C30.9079 13.7051 29.4564 13.1886 28.2687 12.8999C25.9636 12.3379 20.7514 11.6444 18.2588 11.3853C15.645 11.1141 11.1108 10.7411 9.29993 10.1845C8.75093 10.0156 7.63162 9.48598 7.63162 8.19544C7.63162 7.27754 8.1435 6.49942 9.15514 5.87057C10.761 4.87128 14.0046 4.2501 17.3857 4.2501C21.3831 4.2355 24.7682 5.14318 26.9216 6.09941C27.6539 6.42423 28.5109 6.89067 29.1914 7.44251C29.9595 8.06442 31.0376 9.35678 31.4275 11.1594H35.0397V1.41244H31.0064V2.54531C31.0064 2.91102 30.626 3.38621 29.9069 2.9935C28.1019 2.05297 22.9985 0.0237232 16.7419 0.0153288H16.7427ZM105.132 1.78654L124.807 19.422L124.605 7.54835C124.585 5.99138 124.296 5.34136 122.6 5.34136H118.901V1.78946H135.724V5.34136H132.115C130.386 5.34136 130.277 5.89065 130.256 7.54835L130.561 30.2361H124.8L102.138 10.148L102.143 24.4046C102.163 25.9542 102.236 26.6842 103.843 26.6842H107.884V30.2346H91.3622V26.6845H95.2243C96.667 26.6845 96.6097 25.3185 96.6097 24.3239V7.68339C96.6097 6.60927 96.4579 5.34392 94.1928 5.34392H91.059V1.78654H105.132ZM154.947 26.6776C155.105 26.6776 155.807 26.6575 155.943 26.6163C156.332 26.4959 156.595 26.2207 156.717 25.9338C156.769 25.8134 156.794 25.2805 156.794 25.1648L156.797 19.5515C156.797 19.4165 156.787 19.3581 156.557 19.0574C156.303 18.7289 146.251 7.41477 145.791 6.91658C145.219 6.29795 144.216 5.34173 142.692 5.34173H139.196V1.78836H158.924V5.33735H156.546C155.996 5.33735 155.63 5.85561 156.1 6.43153C156.1 6.43153 162.738 14.3175 162.801 14.4C162.863 14.4839 162.916 14.504 163 14.4273C163.083 14.3489 169.804 6.5038 169.857 6.44175C170.177 6.06145 169.96 5.34136 169.271 5.34136H166.831V1.78836H183V5.34136H179.388C178.077 5.34136 177.544 5.58224 176.558 6.6892C176.107 7.19578 165.948 18.7132 165.672 19.0252C165.527 19.1884 165.539 19.4158 165.539 19.5508V25.1633C165.539 25.2772 165.565 25.8108 165.616 25.9305C165.739 26.2188 166.004 26.494 166.392 26.613C166.528 26.6546 167.22 26.6751 167.378 26.6751H171.073V30.2277H151.446V26.6747L154.948 26.6776H154.947Z" fill="#6DD0EF"/>
</g>
</svg>
