<svg width="77" height="77" viewBox="0 0 77 77" fill="none" xmlns="http://www.w3.org/2000/svg">
<g opacity="0.5" clip-path="url(#clip0)">
<path d="M76.635 38.4696C76.635 59.6497 59.3809 77.0027 38.3355 77.0027C17.3074 77.0027 0.0361328 59.6497 0.0361328 38.4696C0.0361328 17.2895 17.2901 -0.0634766 38.3355 -0.0634766C59.3939 -0.0634766 76.635 17.2895 76.635 38.4696ZM29.8491 42.7752L29.8015 42.8622L29.9225 42.8187L37.2591 38.4696L35.9578 37.7303L29.8491 42.7752ZM63.341 52.6912H63.4794L63.4015 52.5607L41.1456 37.5128L39.4552 38.4696L63.341 52.6912ZM38.1064 11.5051L38.0459 11.4182L37.981 11.5051L36.4333 36.6865L37.8125 37.5128L38.1064 11.5051ZM61.3135 11.2877L61.361 11.4182C63.1724 13.1143 64.8887 14.941 66.4408 16.898C71.2742 22.9868 73.7945 30.6847 73.7945 38.4696C73.7945 44.6018 72.1648 50.5166 69.2509 55.866L69.6486 56.6054L68.8186 56.6488C62.4505 67.3477 50.7519 74.0888 38.3355 74.0888C25.9019 74.0888 14.2683 67.3911 7.89572 56.6488L7.1133 56.6054L7.43747 55.866C5.57859 52.4302 4.30313 48.777 3.55095 44.9498L3.47749 44.8628L3.42985 44.9933C3.92277 49.0379 5.1938 52.9956 7.1133 56.6054C13.3776 68.4349 25.0589 75.3935 38.3528 75.3935C58.5336 75.3935 74.9921 58.7364 74.9921 38.4696C74.9921 28.0752 69.6659 17.5939 61.4388 11.2877H61.3135ZM37.7519 3.67678C18.9503 4.02469 3.76711 19.464 3.76711 38.4696C3.76711 44.3844 5.37959 50.0817 8.0514 55.3006L32.0409 35.5122L34.0081 36.643L7.805 55.9965L7.69685 56.2574H7.99089L37.7823 39.3829L37.7216 45.4282L8.67825 56.3879C14.8345 66.7823 26.3299 73.2189 38.3355 73.2189C50.4016 73.2189 61.7458 66.7823 67.9755 56.3879L38.9495 45.4282L38.8717 39.3829L68.7451 56.2574H69.0045L68.8833 56.04L42.6632 36.643L44.6129 35.5122L68.6197 55.3006C71.3693 50.1252 72.9471 44.3844 72.9471 38.4696C72.9471 19.2901 57.8289 4.24214 38.9667 3.63327L43.999 34.4684L38.8587 37.5128L38.4869 3.0679L38.3355 2.89393L38.1971 3.0679L34.5743 35.5557L32.6419 34.4684L37.7519 3.67678ZM13.8835 66.7823C6.4388 59.2583 2.1545 49.1684 2.1545 38.4696C2.1545 18.4202 18.4098 2.0676 38.3355 2.0676C55.7883 2.0676 70.6603 14.767 75.0223 31.4241L75.1132 31.4676L75.1607 31.3805C71.6761 13.7667 56.3115 0.806377 38.3355 0.806377C17.7527 0.806377 0.883479 17.7679 0.883479 38.4696C0.883479 49.3858 5.70389 59.6932 13.8056 66.9128H13.9137L13.8835 66.7823Z" fill="#6DD0EF"/>
</g>
<defs>
<clipPath id="clip0">
<rect width="77" height="77" fill="white"/>
</clipPath>
</defs>
</svg>
