<svg width="121" height="44" viewBox="0 0 121 44" fill="none" xmlns="http://www.w3.org/2000/svg">
<path d="M34 38H29V37H40V38H35V44H34V38Z" fill="#4CAFCE"/>
<path d="M54 44V43H44.0405V40.9614H53V40H44.0405V38H54V37H43.0153V44H54Z" fill="#4CAFCE"/>
<path d="M57 40.5C57 38.567 58.567 37 60.5 37H67.9847V38H60.5C59.1193 38 58 39.1193 58 40.5C58 41.8807 59.1193 43 60.5 43H67.9847V44H60.5C58.567 44 57 42.433 57 40.5Z" fill="#4CAFCE"/>
<path d="M83 44H82V41H72V44H71V37H72V40H82V37H83V44Z" fill="#4CAFCE"/>
<path d="M100.468 0L86.495 13.9725V0H61.5446C56.7216 0 52.8119 3.90975 52.8119 8.73267C52.8119 13.5556 56.7216 17.4653 61.5446 17.4653H67.3663C69.2036 17.4653 70.6931 18.9548 70.6931 20.7921C70.6931 22.6294 69.2036 24.1188 67.3663 24.1188H35.7624V17.4653H46.5743V11.6436H35.7624V5.82178H48.6535V0C43.7615 0 29.9406 0 29.9406 0V29.9406C29.9406 29.9406 61.2161 29.9406 67.3663 29.9406C72.4189 29.9406 76.5148 25.8447 76.5148 20.7921C76.5148 15.7395 72.4189 11.6436 67.3663 11.6436H61.5446C59.9369 11.6436 58.6337 10.3403 58.6337 8.73267C58.6337 7.12503 59.9369 5.82178 61.5446 5.82178H80.6733V29.9406H86.495V22.2057L91.6931 17.0077L104.626 29.9406H112.859L95.8097 12.8911L108.701 0H100.468Z" fill="white"/>
<path fill-rule="evenodd" clip-rule="evenodd" d="M24.5347 8.73267C24.5347 3.90975 20.6249 0 15.802 0H0V5.82178H15.802C17.4096 5.82178 18.7129 7.12503 18.7129 8.73267C18.7129 10.3403 17.4096 11.6436 15.802 11.6436H0V29.9406H17.0495C22.1021 29.9406 26.198 25.8447 26.198 20.7921C26.198 17.9776 24.9271 15.46 22.9279 13.7818C23.9398 12.3563 24.5347 10.6139 24.5347 8.73267ZM5.82178 24.1188V17.4653H17.0495C18.8868 17.4653 20.3762 18.9548 20.3762 20.7921C20.3762 22.6294 18.8868 24.1188 17.0495 24.1188H5.82178Z" fill="white"/>
<path d="M113.904 0.713584H112.693V0H115.991V0.713584H114.78V3.78416H113.904V0.713584Z" fill="white"/>
<path d="M119.906 3.78416L119.9 1.51366L118.787 3.38412H118.392L117.284 1.56232V3.78416H116.462V0H117.187L118.603 2.35158L119.998 0H120.717L120.727 3.78416H119.906Z" fill="white"/>
</svg>
