<svg width="148" height="43" viewBox="0 0 148 43" fill="none" xmlns="http://www.w3.org/2000/svg">
<g opacity="0.5">
<path fill-rule="evenodd" clip-rule="evenodd" d="M118.146 0.895381C101.807 2.04094 91.867 11.1398 91.8793 24.9398C91.8909 38.7624 105.77 45.8416 125.196 41.9313C129.247 41.1163 128.995 41.36 129.706 37.5833C130.448 33.6519 130.413 33.6074 127.198 34.4239C112.868 38.0649 103.581 31.0594 106.645 18.9216C108.26 12.5239 112.671 8.27224 118.498 7.49661C123.153 6.8764 126.224 8.8494 126.458 12.6115C126.559 14.2605 126.578 14.2715 129.064 14.2715C131.555 14.2715 131.247 14.7538 132.57 8.78081C134.05 2.10152 134.124 2.50209 131.279 1.84832C126.981 0.859634 122.887 0.562657 118.146 0.895381ZM8.86445 1.80163C8.62847 2.17886 8.04036 4.66699 8.04036 5.28939C8.04036 5.76732 8.2364 5.95849 9.26089 6.47217C10.3231 7.00555 10.8655 7.82641 10.9396 9.01503C10.9948 9.90302 6.83435 29.7592 5.97831 32.6895C5.20867 35.3265 3.93078 37.0054 2.34794 37.4578C0.834806 37.8913 0.828997 37.8971 0.461604 39.363C-0.371202 42.6902 -1.44506 42.3757 10.7435 42.3757C22.4979 42.3757 21.2585 42.5924 21.7428 40.4538C22.2946 38.0124 22.23 37.6782 21.1155 37.2353C20.4649 36.977 19.6662 36.1605 19.4651 35.5476C19.3192 35.1025 20.9645 26.6166 21.6034 24.5202C21.7196 24.1386 21.7167 24.1343 23.7134 27.7359C29.3927 37.9773 32.0821 40.8602 37.039 42.0182C38.5347 42.3669 49.8252 42.5165 50.2593 42.1933C50.5294 41.9912 51.2207 39.4914 51.2294 38.6836C51.2359 38.0744 50.7603 37.7701 49.6052 37.6461C47.2193 37.3907 46.8911 37.0477 39.8387 27.4535C34.4491 20.1241 34.2371 19.8103 34.4941 19.5659C36.008 18.127 48.9452 7.55279 49.595 7.22371C50.6434 6.69252 52.0941 6.2394 53.184 6.10295C54.3704 5.95337 54.5526 5.75054 54.8917 4.19272C55.5466 1.18945 56.4847 1.4711 45.8158 1.4711C36.1517 1.4711 36.5627 1.4368 36.3696 2.25328C35.6435 5.32223 35.6689 5.66662 36.6629 6.22553C38.2087 7.09602 38.2138 7.08946 30.9937 13.123C22.9379 19.8556 22.6845 20.0635 22.6279 19.9956C22.535 19.8855 25.021 8.756 25.2585 8.21678C25.5925 7.46013 26.4238 6.6969 27.3728 6.27589C28.4227 5.81036 28.4466 5.77388 28.8133 4.07889C29.4399 1.17996 30.5523 1.4711 18.8298 1.4711H9.07139L8.86445 1.80163ZM58.3536 1.80163C58.1169 2.17886 57.5295 4.66699 57.5295 5.28939C57.5295 5.77024 57.6384 5.87604 58.705 6.43641C59.1995 6.69617 59.6649 7.08799 59.9335 7.47252C60.7671 8.66478 60.8549 8.12045 57.0314 25.5308C53.245 42.7799 53.457 41.6679 53.8687 42.0817C54.2971 42.5114 70.1835 42.5465 70.6809 42.1181C71.0258 41.8212 71.815 38.4574 71.6575 37.9576C71.6059 37.7949 71.314 37.5344 71.0083 37.3776C68.5513 36.1174 68.5143 35.3797 70.4885 26.9624L70.5662 26.6319H77.3441C82.5369 26.6319 84.1786 26.5881 84.3681 26.448C84.6092 26.2678 85.9342 20.7829 85.9342 19.965C85.9342 19.1201 85.9952 19.1273 78.8579 19.1273C72.7255 19.1273 72.3175 19.112 72.3204 18.8705C72.3218 18.729 72.8373 16.262 73.4654 13.3893L74.6075 8.16498L79.2827 8.12631C86.3263 8.06721 87.1025 8.4386 87.1047 11.8694C87.1054 13.4557 87.3007 13.5725 89.8427 13.5105C91.4183 13.4718 91.827 13.4163 92.026 13.2164C92.2591 12.9822 94.5731 3.03913 94.5731 2.27298C94.5731 1.42147 95.6839 1.47036 76.2992 1.47036H58.5613L58.3536 1.80163ZM137.605 1.58709C137.605 2.02488 137.613 2.02926 138.41 2.02926H139.216V7.47252H140.24V2.02926H141.046C141.843 2.02926 141.851 2.02488 141.851 1.58709V1.14564H137.605V1.58709ZM143.315 4.30944V7.47252H144.193L144.198 5.22882L144.203 2.9851L144.806 4.27296C145.571 5.90739 145.708 5.9147 146.495 4.34593L147.105 3.13251L147.113 5.30252L147.122 7.47252H148V1.14564H147.551C147.125 1.14564 147.067 1.22297 146.4 2.65456L145.698 4.16278L144.945 2.65456C144.241 1.24632 144.162 1.14564 143.753 1.14564H143.315V4.30944Z" fill="#6DD0EF"/>
</g>
</svg>
