<svg width="169" height="46" viewBox="0 0 169 46" fill="none" xmlns="http://www.w3.org/2000/svg">
<g opacity="0.5">
<path d="M133.997 13.77L140.251 9.16113H119.318V36.8399H140.251V32.2311H125.292V25.1459H138.051V20.5371H125.292V13.77H133.997Z" fill="#6DD0EF"/>
<path d="M103.52 19.9511H96.2511V13.77H107.856L114.11 9.16113H90.2773V36.8399H102.75C109.745 36.8399 113.758 33.671 113.758 28.1444C113.758 22.8613 110.121 19.9511 103.52 19.9511ZM102.481 32.2311H96.2511V24.5584H102.481C106.273 24.5584 108.039 25.8415 108.039 28.394C108.037 31.0028 106.168 32.2311 102.481 32.2311Z" fill="#6DD0EF"/>
<path d="M157.209 9.16113H145.812V36.8399H151.786V28.9998H157.209C164.481 28.9998 169 25.1763 169 19.0667C169 12.9572 164.483 9.16113 157.209 9.16113ZM157.081 24.3909H151.786V13.77H157.081C160.908 13.77 163.017 15.6558 163.017 19.0804C163.017 22.5051 160.91 24.3909 157.081 24.3909Z" fill="#6DD0EF"/>
<path d="M80.021 30.8475C78.4895 31.6923 76.7053 32.1397 74.8648 32.1397C69.4786 32.1397 65.5707 28.2965 65.5707 23.0012C65.5707 17.706 69.4801 13.8627 74.8648 13.8627C76.9017 13.8627 78.7285 14.435 80.2981 15.5629L84.5821 12.4061L84.2989 12.158C81.7976 9.96017 78.4545 8.79883 74.6334 8.79883C70.4879 8.79883 66.7246 10.1961 64.0392 12.7349C61.337 15.2874 59.8496 18.8795 59.8496 22.849C59.8496 26.8369 61.3324 30.4822 64.0239 33.1123C66.7246 35.7516 70.4788 37.2052 74.5953 37.2052C78.9021 37.2052 82.6623 35.7044 85.2108 32.9723C83.2439 31.5233 81.3455 30.1245 81.3455 30.1245L80.021 30.8475Z" fill="#6DD0EF"/>
<path d="M41.2073 8.93848C42.2943 10.3418 43.223 11.8745 43.9644 13.5108L23.0028 28.9552L14.2461 23.4666V16.8639L23.0028 22.3525L41.2073 8.93848Z" fill="#6DD0EF"/>
<path d="M5.31309 22.9998C5.31309 22.703 5.3207 22.4092 5.33592 22.1154L0.0289255 21.8506C0.010657 22.2311 0 22.6147 0 22.9998C0 29.3513 2.57433 35.1017 6.73802 39.263L10.5013 35.5005C7.29674 32.2981 5.31309 27.8765 5.31309 22.9998Z" fill="#6DD0EF"/>
<path d="M23.0029 5.31354C23.2998 5.31354 23.5936 5.32419 23.8874 5.33789L24.1523 0.0289197C23.7717 0.0106548 23.3881 0 23.0029 0C16.65 0 10.8985 2.57381 6.73633 6.73667L10.4996 10.4992C13.7027 7.29679 18.1267 5.31354 23.0029 5.31354Z" fill="#6DD0EF"/>
<path d="M23.0029 40.6882C22.7061 40.6882 22.4122 40.6806 22.1184 40.6654L21.8535 45.9713C22.2341 45.9895 22.6178 46.0002 23.0029 46.0002C29.3558 46.0002 35.1073 43.4264 39.2695 39.2635L35.5062 35.501C32.3031 38.7034 27.8806 40.6882 23.0029 40.6882Z" fill="#6DD0EF"/>
<path d="M32.977 8.4003L37.4512 5.1035C33.5022 1.91324 28.4768 0 23.0039 0V5.31354C26.7018 5.31354 30.1362 6.45357 32.977 8.4003Z" fill="#6DD0EF"/>
<path d="M46.0075 23.0001C46.0075 21.5937 45.8811 20.2163 45.6391 18.8799L40.6868 22.5283C40.6914 22.685 40.6929 22.8418 40.6929 23.0001C40.6929 28.1934 38.4428 32.8707 34.8652 36.1097L38.4352 40.0549C43.0861 35.8479 46.0075 29.7657 46.0075 23.0001Z" fill="#6DD0EF"/>
<path d="M23.0035 40.6878C17.8092 40.6878 13.1309 38.4382 9.8913 34.8613L5.94531 38.4306C10.1547 43.079 16.2381 45.9998 23.0035 45.9998V40.6878Z" fill="#6DD0EF"/>
<path d="M11.1407 9.89051L7.57076 5.94531C2.92144 10.1538 0 16.236 0 23.0001H5.31461C5.31308 17.8068 7.56315 13.1295 11.1407 9.89051Z" fill="#6DD0EF"/>
</g>
</svg>
