<svg width="204" height="73" viewBox="0 0 204 73" fill="none" xmlns="http://www.w3.org/2000/svg">
<path fill-rule="evenodd" clip-rule="evenodd" d="M12.1866 69.2514C13.2935 66.6182 14.9723 64.2723 17.098 62.3887C19.2237 60.5051 21.7414 59.1324 24.4634 58.3729C27.1717 57.6248 30.013 57.5145 32.7698 58.0505C35.5266 58.5865 38.126 59.7546 40.3693 61.4654C39.2625 64.0981 37.5839 66.4437 35.4588 68.3272C33.3336 70.2108 30.8167 71.5837 28.0953 72.3439C25.3865 73.0917 22.5448 73.2019 19.7875 72.6659C17.0303 72.13 14.4305 70.962 12.1866 69.2514ZM160.09 61.4654C162.334 59.7547 164.934 58.5868 167.691 58.0508C170.448 57.5148 173.29 57.625 175.999 58.3729C178.72 59.132 181.238 60.5047 183.363 62.3884C185.489 64.272 187.167 66.6181 188.273 69.2514C186.029 70.962 183.43 72.1299 180.673 72.6659C177.916 73.2019 175.075 73.0917 172.367 72.3439C169.645 71.5833 167.128 70.2102 165.002 68.3268C162.877 66.4433 161.198 64.0979 160.09 61.4654ZM173.623 50.8935C175.351 48.6417 177.564 46.8198 180.092 45.5666C182.62 44.3133 185.397 43.6618 188.212 43.6618C191.026 43.6618 193.803 44.3133 196.331 45.5666C198.859 46.8198 201.072 48.6417 202.8 50.8935C201.072 53.1453 198.859 54.9672 196.331 56.2205C193.803 57.4737 191.026 58.1252 188.212 58.1252C185.397 58.1252 182.62 57.4737 180.092 56.2205C177.564 54.9672 175.351 53.1453 173.623 50.8935ZM0 50.8935C1.72828 48.6417 3.94075 46.8198 6.46894 45.5666C8.99714 44.3133 11.7742 43.6618 14.5884 43.6618C17.4027 43.6618 20.1797 44.3133 22.7079 45.5666C25.2361 46.8198 27.4488 48.6417 29.1771 50.8935C27.4488 53.1453 25.2361 54.9672 22.7079 56.2205C20.1797 57.4737 17.4027 58.1252 14.5884 58.1252C11.7742 58.1252 8.99714 57.4737 6.46894 56.2205C3.94075 54.9672 1.72828 53.1453 0 50.8935ZM4.27441 20.9704C7.06695 20.6536 9.89394 20.9862 12.5407 21.943C15.1874 22.8998 17.5843 24.4555 19.5492 26.4921C21.5366 28.5518 23.0482 31.0333 23.9744 33.7573C24.9007 36.4814 25.2186 39.38 24.9053 42.2438C22.112 42.5616 19.2842 42.2292 16.6367 41.2718C13.9893 40.3144 11.5921 38.7574 9.62772 36.7191C7.63931 34.6608 6.12745 32.1799 5.20156 29.456C4.27567 26.7322 3.95892 23.8336 4.27441 20.9704ZM177.88 42.2438C177.565 39.3799 177.883 36.4809 178.809 33.7566C179.735 31.0323 181.248 28.5509 183.236 26.4921C185.203 24.4534 187.602 22.8965 190.251 21.9396C192.901 20.9827 195.731 20.6513 198.526 20.9704C198.841 23.8339 198.524 26.7327 197.598 29.4567C196.672 32.1806 195.159 34.6615 193.169 36.7191C191.206 38.7582 188.81 40.316 186.163 41.274C183.515 42.2319 180.688 42.5646 177.895 42.2468L177.88 42.2438ZM22.4833 1C25.065 2.17334 27.3536 3.91986 29.1801 6.11049C31.0066 8.30113 32.3242 10.8799 33.0356 13.6562C33.7628 16.4447 33.8708 19.362 33.3519 22.198C32.833 25.0339 31.7001 27.7178 30.0348 30.0564C27.4535 28.8829 25.1653 27.1363 23.3392 24.9456C21.5132 22.755 20.1962 20.1763 19.4853 17.4002C18.7598 14.6113 18.6536 11.6939 19.1745 8.85841C19.6954 6.02291 20.8306 3.33993 22.4978 1.00288L22.4833 1ZM172.733 30.0564C171.068 27.7179 169.935 25.0338 169.417 22.1978C168.898 19.3618 169.007 16.4444 169.735 13.6562C170.446 10.8801 171.763 8.3014 173.589 6.11076C175.415 3.92013 177.703 2.17352 180.285 1C181.95 3.33836 183.084 6.0223 183.603 8.85832C184.122 11.6943 184.013 14.6117 183.286 17.4002C182.576 20.1756 181.261 22.754 179.437 24.9451C177.613 27.1362 175.327 28.8839 172.748 30.0594L172.733 30.0564Z" fill="#6DD0EF"/>
<path d="M77.8941 71.4004C77.2275 71.4004 76.6608 71.1671 76.1941 70.7004C75.7275 70.2337 75.4941 69.6671 75.4941 69.0004V63.8004C75.4941 61.9337 76.3275 60.3671 77.9941 59.1004L93.5941 43.6004C98.3275 39.8671 101.961 36.8337 104.494 34.5004C107.094 32.1004 109.027 29.9004 110.294 27.9004C111.561 25.9004 112.194 23.9337 112.194 22.0004C112.194 18.8671 111.361 16.4004 109.694 14.6004C108.027 12.8004 105.494 11.9004 102.094 11.9004C98.7608 11.9004 96.1275 12.9004 94.1941 14.9004C92.3275 16.8337 91.1608 19.3671 90.6941 22.5004C90.4941 23.3004 90.0941 23.9004 89.4941 24.3004C88.9608 24.6337 88.3608 24.8004 87.6941 24.8004H78.6941C78.0941 24.8004 77.5941 24.6004 77.1941 24.2004C76.7941 23.8004 76.5941 23.3004 76.5941 22.7004C76.7275 18.7671 77.7941 15.1004 79.7941 11.7004C81.8608 8.23372 84.7941 5.46705 88.5941 3.40039C92.3941 1.26706 96.8608 0.200389 101.994 0.200389C107.327 0.200389 111.861 1.13372 115.594 3.00039C119.327 4.80039 122.127 7.30039 123.994 10.5004C125.861 13.7004 126.794 17.3337 126.794 21.4004C126.794 25.8671 125.527 29.9337 122.994 33.6004C120.527 37.2004 116.661 41.0671 111.394 45.2004L97.4941 59.3004H125.794C126.527 59.3004 127.127 59.5337 127.594 60.0004C128.061 60.4671 128.294 61.0671 128.294 61.8004V69.0004C128.294 69.7337 128.061 70.3337 127.594 70.8004C127.127 71.2004 126.527 71.4004 125.794 71.4004H77.8941Z" fill="white"/>
</svg>
