<svg width="159" height="126" viewBox="0 0 159 126" fill="none" xmlns="http://www.w3.org/2000/svg">
<path opacity="0.5" d="M132 107L132 22C132 18.134 128.866 15 125 15L8 15C4.13401 15 1 18.134 1 22L0.999996 107C0.999996 110.866 4.134 114 8 114L125 114C128.866 114 132 110.866 132 107Z" stroke="white" stroke-width="2"/>
<path opacity="0.5" d="M137.5 100L138 100C141.866 100 145 96.866 145 93L145 8C145 4.13401 141.866 1 138 1L21 0.999995C17.134 0.999995 14 4.13401 14 8L14 9.5" stroke="white" stroke-width="2" stroke-linecap="round"/>
<circle opacity="0.5" cx="124" cy="23" r="2" stroke="white" stroke-width="2"/>
<circle opacity="0.5" cx="117" cy="23" r="2" stroke="white" stroke-width="2"/>
<circle opacity="0.5" cx="110" cy="23" r="2" stroke="white" stroke-width="2"/>
<path d="M152.283 96.7547L157.414 92.8414C157.547 92.7666 157.663 92.666 157.757 92.5457C157.851 92.4253 157.92 92.2876 157.96 92.1403C158 91.9931 158.01 91.8393 157.99 91.688C157.97 91.5367 157.921 91.3909 157.844 91.259L151.7 80.7349C151.543 80.4685 151.286 80.2749 150.987 80.196C150.688 80.1172 150.37 80.1593 150.102 80.3133L144.065 82.7572C143.48 82.2895 142.869 81.856 142.234 81.4589C141.566 81.1191 140.881 80.8132 140.181 80.5425L139.312 74.1547C139.309 73.8466 139.185 73.5519 138.966 73.3354C138.747 73.119 138.451 72.9984 138.143 73H125.852C125.544 72.9984 125.248 73.1189 125.029 73.3353C124.809 73.5516 124.684 73.8463 124.681 74.1547L123.818 80.5028C122.446 81.1139 121.144 81.8708 119.934 82.7604L113.903 80.3163C113.635 80.161 113.317 80.1187 113.018 80.1983C112.718 80.2779 112.463 80.4731 112.308 80.7411L106.161 91.2619C106.084 91.3936 106.035 91.5394 106.015 91.6904C105.995 91.8415 106.005 91.9948 106.046 92.1418C106.086 92.2888 106.154 92.4263 106.248 92.5464C106.342 92.6665 106.458 92.7669 106.591 92.8414L111.759 96.7883C111.587 98.2582 111.576 99.7423 111.725 101.215L106.585 105.137C106.452 105.212 106.335 105.312 106.242 105.432C106.148 105.552 106.08 105.69 106.04 105.837C106 105.984 105.99 106.138 106.01 106.289C106.03 106.44 106.081 106.585 106.158 106.717L112.301 117.244C112.46 117.51 112.716 117.702 113.016 117.78C113.315 117.858 113.633 117.814 113.9 117.659L119.943 115.215C120.528 115.683 121.139 116.116 121.774 116.514C122.434 116.855 123.112 117.161 123.805 117.43L124.681 123.845C124.684 124.154 124.809 124.448 125.029 124.665C125.248 124.881 125.544 125.002 125.852 125H138.14C138.448 125.002 138.744 124.881 138.963 124.665C139.182 124.448 139.306 124.153 139.309 123.845L140.178 117.482C141.542 116.873 142.839 116.122 144.046 115.243L150.096 117.687C150.364 117.839 150.682 117.88 150.981 117.802C151.279 117.723 151.535 117.53 151.694 117.265L157.841 106.735C157.918 106.604 157.968 106.459 157.988 106.308C158.008 106.157 157.997 106.004 157.957 105.858C157.917 105.711 157.848 105.574 157.754 105.454C157.661 105.335 157.544 105.235 157.411 105.162L152.246 101.218C152.42 99.7359 152.432 98.2394 152.283 96.7547Z" fill="#01215C" stroke="white" stroke-width="2" stroke-linecap="round" stroke-linejoin="round"/>
<path d="M132 107C136.418 107 140 103.418 140 99C140 94.5817 136.418 91 132 91C127.582 91 124 94.5817 124 99C124 103.418 127.582 107 132 107Z" stroke="white" stroke-width="2" stroke-linecap="round" stroke-linejoin="round"/>
<path d="M22 31L17 36L22 41" stroke="white" stroke-width="2" stroke-linecap="round"/>
<path d="M22 90L17 95L22 100" stroke="white" stroke-width="2" stroke-linecap="round"/>
<path d="M45 41L50 36L45 31" stroke="white" stroke-width="2" stroke-linecap="round"/>
<path d="M28.0004 40.3031H38.607" stroke="white" stroke-width="2" stroke-linecap="round"/>
<path d="M17 53.3032H27.6066M33.999 53.3037L115.999 53.3033M17 64.3032H27.6066M33.999 64.3037L115.999 64.3033M17 75.3032H27.6066M33.999 75.3037L115.999 75.3033" stroke="white" stroke-width="2" stroke-linecap="round"/>
<path d="M45 100L50 95L45 90" stroke="white" stroke-width="2" stroke-linecap="round"/>
<path d="M37 91L30 100" stroke="white" stroke-width="2" stroke-linecap="round"/>
</svg>
