<svg width="118" height="158" viewBox="0 0 118 158" fill="none" xmlns="http://www.w3.org/2000/svg">
<path opacity="0.5" d="M92 62L60 26M92 62H60V26M92 62V150.458C92 152.193 91.3151 153.857 90.0961 155.084C88.8771 156.311 87.2239 157 85.5 157H7.5C5.77609 157 4.12289 156.311 2.9039 155.084C1.68491 153.857 1 152.193 1 150.458V32.7082C1 30.9732 1.68491 29.3094 2.9039 28.0826C4.12289 26.8558 6.27609 26 8 26H60" stroke="white" stroke-width="2" stroke-linecap="round" stroke-linejoin="round"/>
<path opacity="0.5" d="M16 20.8125V17.5417C16 15.8067 16.6849 14.1429 17.9039 12.9161C19.1229 11.6893 20.7761 11 22.5 11H100.5C102.224 11 103.877 11.6893 105.096 12.9161C106.315 14.1429 107 15.8067 107 17.5417V135.292C107 137.027 106.315 138.69 105.096 139.917C103.877 141.144 102.224 141.833 100.5 141.833H97.25" stroke="white" stroke-width="2" stroke-linecap="round" stroke-linejoin="round"/>
<path d="M16 101H55" stroke="white" stroke-width="2" stroke-linecap="round" stroke-linejoin="round"/>
<path d="M16 86H55" stroke="white" stroke-width="2" stroke-linecap="round" stroke-linejoin="round"/>
<path d="M16 115H55" stroke="white" stroke-width="2" stroke-linecap="round" stroke-linejoin="round"/>
<path d="M16 129H55" stroke="white" stroke-width="2" stroke-linecap="round" stroke-linejoin="round"/>
<path d="M62.6123 100.292L66.1123 103.583L73.1123 97" stroke="white" stroke-width="2" stroke-linecap="round" stroke-linejoin="round"/>
<path d="M62.6123 85.292L66.1123 88.583L73.1123 82" stroke="white" stroke-width="2" stroke-linecap="round" stroke-linejoin="round"/>
<path d="M62.6123 114.292L66.1123 117.582L73.1123 111.002" stroke="white" stroke-width="2" stroke-linecap="round" stroke-linejoin="round"/>
<path d="M62.6123 128.292L66.1123 131.582L73.1123 125.002" stroke="white" stroke-width="2" stroke-linecap="round" stroke-linejoin="round"/>
</svg>
