<svg width="162" height="123" viewBox="0 0 162 123" fill="none" xmlns="http://www.w3.org/2000/svg">
<path opacity="0.5" d="M29 30.5V43.5" stroke="white" stroke-width="2"/>
<rect opacity="0.5" x="44" y="44" width="30" height="30" rx="5" transform="rotate(90 44 44)" stroke="white" stroke-width="2" stroke-linecap="round" stroke-linejoin="round" stroke-dasharray="1 5"/>
<rect x="44" y="81" width="30" height="30" rx="5" transform="rotate(90 44 81)" stroke="white" stroke-width="2"/>
<rect x="81" y="44" width="30" height="30" rx="5" transform="rotate(90 81 44)" stroke="white" stroke-width="2"/>
<rect x="118" y="44" width="12" height="30" rx="5" transform="rotate(90 118 44)" stroke="white" stroke-width="2"/>
<rect x="118" y="81" width="30" height="67" rx="5" transform="rotate(90 118 81)" stroke="white" stroke-width="2"/>
<path d="M89 65H117.5M89 73.5H117.5" stroke="white" stroke-width="2"/>
<rect x="44" y="1" width="30" height="30" rx="5" transform="rotate(90 44 1)" stroke="white" stroke-width="2"/>
<path d="M147.5 46L139 54.5L147.5 63" stroke="white" stroke-width="2" stroke-linecap="round"/>
<path d="M118 96L151 96C156.523 96 161 91.5228 161 86L161 64C161 58.4772 156.523 54 151 54L140 54" stroke="white" stroke-width="2"/>
<g opacity="0.5">
<path d="M10.5 23L8 23C4.13401 23 1 26.134 1 30L0.999996 115C0.999996 118.866 4.134 122 7.99999 122L125 122C128.866 122 132 118.866 132 115L132 30C132 26.134 128.866 23 125 23L48.5 23" stroke="white" stroke-width="2"/>
<circle cx="124" cy="31" r="2" stroke="white" stroke-width="2"/>
<circle cx="117" cy="31" r="2" stroke="white" stroke-width="2"/>
<circle cx="110" cy="31" r="2" stroke="white" stroke-width="2"/>
</g>
</svg>
